PathFileType	4	(X/Y/Z)	C:\Users\Basilio\Documents\Thesis Gigler\squatting_fais\c3dfiles\040\SJ_pre5\markers_experimental.trc
DataRate	CameraRate	NumFrames	NumMarkers	Units	OrigDataRate	OrigDataStartFrame	OrigNumFrames
200.000000	200.000000	4	62	mm	200.000000	873	1165
Frame#	Time	FHD			LBHD			RBHD			C7			T10			CLAV			LSHO			LUUPA			LMUPA			LDUPA			LLEP			LMEP			LRAD			LUL			LRFIN			RSHO			RUPA1			RMUPA			RDUPA			RLEP			RMEP			RRAD			RUL			RUFIN			LASI			RASI			USACR			LSACR			RSACR			LTHI1			LTHI2			LTHI3			LTHI4			LLFC			LMFC			LTIB1			LTIB2			LTIB3			LTIB4			LLMAL			LMMAL			LHEE			LMT1			LMT2			LMT5			RTHI			RTHI2			RTHI3			RTHI4			RLFC			RMFC			RTIB1			RTIB2			RTIB3			RTIB4			RLMAL			RMMAL			RHEE			RMT1			RMT2			RMT5			*61			
		X1	Y1	Z1	X2	Y2	Z2	X3	Y3	Z3	X4	Y4	Z4	X5	Y5	Z5	X6	Y6	Z6	X7	Y7	Z7	X8	Y8	Z8	X9	Y9	Z9	X10	Y10	Z10	X11	Y11	Z11	X12	Y12	Z12	X13	Y13	Z13	X14	Y14	Z14	X15	Y15	Z15	X16	Y16	Z16	X17	Y17	Z17	X18	Y18	Z18	X19	Y19	Z19	X20	Y20	Z20	X21	Y21	Z21	X22	Y22	Z22	X23	Y23	Z23	X24	Y24	Z24	X25	Y25	Z25	X26	Y26	Z26	X27	Y27	Z27	X28	Y28	Z28	X29	Y29	Z29	X30	Y30	Z30	X31	Y31	Z31	X32	Y32	Z32	X33	Y33	Z33	X34	Y34	Z34	X35	Y35	Z35	X36	Y36	Z36	X37	Y37	Z37	X38	Y38	Z38	X39	Y39	Z39	X40	Y40	Z40	X41	Y41	Z41	X42	Y42	Z42	X43	Y43	Z43	X44	Y44	Z44	X45	Y45	Z45	X46	Y46	Z46	X47	Y47	Z47	X48	Y48	Z48	X49	Y49	Z49	X50	Y50	Z50	X51	Y51	Z51	X52	Y52	Z52	X53	Y53	Z53	X54	Y54	Z54	X55	Y55	Z55	X56	Y56	Z56	X57	Y57	Z57	X58	Y58	Z58	X59	Y59	Z59	X60	Y60	Z60	X61	Y61	Z61	X62	Y62	Z62	

874	4.365	-53.50339508056642	1311.358154296875	-898.9602661132815	-179.1718292236328	1256.831420898438	-932.309753417969	-230.1149291992188	1230.977905273438	-796.4576416015627	-244.2713470458985	1152.51220703125	-850.828796386719	-446.6227416992189	912.2734985351565	-827.8444824218752	-156.5164337158203	1024.993896484375	-826.909362792969	-142.2764587402344	1059.101928710938	-1002.254577636719	-222.8782653808594	946.9700927734377	-1157.863159179688	-244.5980377197266	906.7766113281252	-1144.693725585938	-259.9214782714844	908.3164062500002	-1201.903198242188	-301.5335998535157	875.6345825195315	-1246.90869140625	-360.4703674316407	925.101257324219	-1241.940307617188	-495.3537902832032	763.5800170898439	-1054.278442382813	-460.9634094238282	699.6947021484376	-1076.107543945313	-457.7180175781251	759.5344848632814	-997.1623535156252	-183.3952941894532	1096.841430664063	-664.4888305664064	-334.7684936523438	1103.627075195313	-526.3334960937501	-345.5185852050782	1057.549682617188	-509.0869445800782	-387.0659484863282	1089.937866210938	-481.3782653808595	-439.0953674316407	1057.080200195313	-441.2759399414064	-495.8403625488282	1072.412963867188	-503.6904907226564	-455.5341186523439	826.2858886718752	-610.1336059570314	-457.1067810058595	787.0332031250002	-545.2418212890626	-408.2469787597657	782.3735961914065	-647.7747802734376	-401.624725341797	688.2626342773439	-909.5189208984377	-397.0585021972657	693.1323242187501	-708.5854492187501	-548.9555664062501	804.7925415039065	-809.0125122070315	-573.8048095703126	781.6359863281252	-836.6846923828127	-573.3450317382814	782.4941406250002	-780.8341064453127	-418.8405761718751	525.4856567382814	-1052.218139648438	-344.4935607910157	522.2053222656251	-1095.330078125	-320.8015136718751	562.7874755859376	-1098.677734375	-308.7221679687501	474.2557373046876	-1100.760620117188	-208.5208282470704	437.6898193359376	-1145.2705078125	-181.6539764404297	394.2781372070314	-1035.618041992188	-260.7980041503907	235.7560424804688	-1125.189453125	-348.0560302734376	249.5702819824219	-1147.654418945313	-315.2980041503907	218.9958496093751	-1140.993286132813	-348.5224609375001	147.69482421875	-1110.606201171875	-452.7024536132814	103.363639831543	-1111.25048828125	-399.6674194335939	99.02798461914065	-1037.856079101563	-511.5877685546876	46.75414657592774	-1062.361694335938	-291.7434387207032	54.29606246948244	-1102.09912109375	-305.7180786132813	52.933162689209	-1147.528076171875	-363.6176147460938	31.66169929504395	-1183.722778320313	-362.8371887207032	554.6149291992189	-564.0325927734376	-297.5137329101563	549.0395507812501	-547.2363281250001	-275.8070068359376	574.2854003906251	-550.7057495117189	-253.9793090820313	476.1849060058595	-541.2993164062501	-178.3491668701172	423.1235656738282	-518.7218017578126	-156.9826049804688	398.246551513672	-641.1994628906251	-220.3975524902344	250.9368591308594	-537.1243896484376	-328.4472656250001	236.2687683105469	-532.0652465820314	-292.7019958496094	206.9592742919922	-534.6620483398439	-302.8728027343751	157.2316589355469	-566.2970581054689	-415.0467529296876	100.3579788208008	-559.3495483398439	-374.3916931152344	96.54544067382815	-641.3229370117189	-474.9350585937501	49.61425018310548	-621.8375244140626	-258.9171752929688	53.39867401123048	-563.6663818359376	-273.0108337402344	56.66491699218751	-525.9424438476564	-327.6405944824219	35.13921737670899	-485.0949096679689	nan	nan	nan	
875	4.37	-52.28856277465822	1297.921264648438	-898.466003417969	-179.044662475586	1243.644287109375	-931.6647949218752	-228.2272033691407	1217.039794921875	-795.7734375000002	-242.896469116211	1139.773559570313	-849.8623657226565	-447.0577392578126	901.2644042968752	-827.303649902344	-155.9969940185547	1011.47607421875	-826.6814575195315	-141.7893218994141	1046.354370117188	-1001.742797851563	-222.1456451416016	934.8380126953127	-1156.897705078125	-246.3362579345704	894.7359008789065	-1142.681762695313	-259.9188232421876	896.566101074219	-1201.022216796875	-301.6193847656251	864.7297973632815	-1246.587524414063	-359.5884094238282	915.2644653320315	-1242.318481445313	-496.3225402832032	754.0745849609376	-1054.1962890625	-462.1449584960939	690.5307617187501	-1075.968505859375	-459.0839233398439	749.8820190429689	-996.4946289062502	-181.1019897460938	1083.695190429688	-663.8902587890626	-330.2593688964844	1091.420166015625	-523.7377929687501	-341.9132080078126	1044.878784179688	-507.4870910644532	-382.5955505371094	1077.7587890625	-479.0080871582032	-435.1300659179689	1046.553466796875	-438.8850708007814	-492.519012451172	1063.2314453125	-500.8085937500001	-455.6199340820314	816.749450683594	-608.9626464843751	-456.2670288085939	777.2749023437502	-544.4415283203126	-408.9100646972657	772.7446899414065	-647.6642456054689	-403.3452453613282	678.0873413085939	-909.0503540039065	-398.6031494140626	682.6292114257814	-708.0999755859376	-550.6693115234376	794.1467285156252	-808.4707641601565	-574.5650634765626	771.0109863281252	-835.5124511718752	-574.9760742187501	771.829284667969	-780.3618774414065	-418.6978454589845	519.8066406250001	-1054.914306640625	-343.5111999511719	519.1469726562501	-1096.957641601563	-320.6824340820313	560.0991210937501	-1098.775146484375	-307.4877624511719	472.1323242187501	-1104.164306640625	-206.2744903564454	435.9733276367189	-1148.123657226563	-178.1757202148438	392.9771728515626	-1037.569580078125	-259.8143920898438	235.1194305419922	-1125.618774414063	-346.9039611816407	248.4862670898438	-1148.401000976563	-315.4103698730469	217.8156738281251	-1141.447875976563	-347.6548767089844	146.7554473876953	-1110.210205078125	-452.3856811523439	103.4535217285157	-1110.891845703125	-399.4753417968751	99.14822387695315	-1037.724243164063	-511.4209289550782	46.98445129394532	-1062.138671875	-291.9137878417969	54.60290908813478	-1102.059326171875	-305.6047973632813	52.92959213256837	-1147.485961914063	-363.5593872070313	31.72391319274903	-1183.661254882813	-361.5246582031251	549.8684692382814	-563.1947631835939	-296.2888793945313	546.0661621093751	-546.4932250976564	-274.7576904296876	571.6679077148439	-550.9923706054689	-251.7640075683594	473.3197326660157	-539.2301635742189	-176.4879302978516	421.9596252441407	-518.4918823242189	-153.6358184814453	397.3706359863282	-641.3620605468751	-218.2069091796876	250.0368804931641	-537.1625366210939	-327.1784362792969	235.5986785888672	-532.6157836914064	-291.3615722656251	205.8722839355469	-534.9120483398439	-301.9487915039063	156.845458984375	-566.9133300781251	-414.7656555175782	100.6899032592774	-559.9861450195314	-373.8605041503907	96.3401794433594	-641.8950195312501	-474.7366638183595	49.76032638549806	-622.3063964843751	-258.6279296875001	54.4325637817383	-563.7737426757814	-272.6786804199219	56.59482955932619	-526.2617187500001	-327.3713989257813	35.41598129272462	-485.3500061035157	nan	nan	nan	
876	4.375	-50.72092437744142	1284.625366210938	-897.9482421875002	-177.5248718261719	1229.9267578125	-930.7905273437502	-227.2360992431641	1203.341064453125	-794.8962402343752	-241.4221954345704	1126.969970703125	-849.0894775390627	-447.4324340820314	890.4544067382815	-826.8491821289065	-154.9261474609375	998.332702636719	-826.4756469726565	-140.9518127441407	1033.787963867188	-1001.441528320313	-221.9303588867188	923.3171997070315	-1156.3837890625	-245.7200469970704	882.8979492187502	-1142.503295898438	-260.0912475585938	885.6654052734377	-1200.559692382813	-301.8210144042969	854.3974609375002	-1246.548461914063	-358.9708862304688	905.6354980468752	-1242.667846679688	-497.0889892578126	744.7111816406251	-1054.255004882813	-462.8571777343751	680.8168945312501	-1075.8837890625	-460.0534057617189	740.1194458007814	-996.2049560546877	-178.5363922119141	1070.270629882813	-663.7683105468751	-325.5328674316407	1078.993041992188	-521.7088623046876	-338.2529907226563	1032.537963867188	-506.0916748046876	-378.1349182128907	1066.27783203125	-476.7816772460939	-430.7308959960939	1035.350463867188	-436.6000366210939	-488.4538574218751	1053.789428710938	-498.1094970703126	-455.8855285644532	807.2993164062502	-608.0771484375001	-455.9661560058595	767.6358642578126	-543.5347900390626	-409.7174377441407	763.4021606445314	-647.6320800781251	-405.1897888183595	667.8861694335939	-908.3225097656252	-401.9642028808595	671.3807373046876	-707.3301391601564	-552.4146728515626	783.6092529296877	-807.787780761719	-577.2714843750001	760.9840087890626	-835.7754516601565	-577.1727905273439	761.5797729492189	-780.0429687500002	-418.3982238769532	514.8251342773439	-1057.602783203125	-343.1044921875001	517.2045898437501	-1098.348754882813	-320.4747924804688	558.1611938476564	-1098.417602539063	-306.2830505371094	470.028045654297	-1107.403564453125	-204.5739440917969	434.621795654297	-1150.318237304688	-175.08544921875	391.2904357910157	-1039.262573242188	-259.1356811523438	233.7257995605469	-1125.813720703125	-345.9567260742188	247.8785552978516	-1148.878295898438	-313.4941101074219	216.4835357666016	-1141.427734375	-346.8890075683594	145.5226440429688	-1110.079467773438	-452.072967529297	103.4984283447266	-1110.72607421875	-399.3025512695314	99.22915649414065	-1037.705200195313	-511.3293762207032	47.18965148925782	-1061.923461914063	-291.8594360351563	54.56455993652345	-1102.050415039063	-305.5748596191407	52.92249298095705	-1147.508666992188	-363.5604858398438	31.73711585998536	-1183.625610351563	-360.6285705566407	545.9367065429689	-562.3019409179689	-295.4430236816407	542.5870971679689	-546.2225952148439	-274.4101867675782	568.9115600585939	-552.1980590820314	-250.1152343750001	471.182586669922	-537.6269531250001	-174.1495666503907	420.2468261718751	-518.5020751953126	-150.2311401367188	396.6445312500001	-641.7875976562501	-216.7538146972657	248.6445465087891	-538.0441284179689	-326.2522277832032	235.3021392822266	-532.6990966796876	-290.2877502441407	204.8079071044922	-535.5380859375001	-301.2871093750001	156.4154205322266	-567.2529296875001	-414.4614562988282	100.6750106811524	-560.5084228515626	-373.2684631347657	96.07056427001956	-642.4616699218751	-474.4650268554689	49.83279418945314	-622.8204345703126	-258.5853271484376	53.27538299560548	-564.0321044921876	-272.6070861816407	56.6592140197754	-526.5140380859376	-327.3473510742188	35.43662643432618	-485.5774536132814	nan	nan	nan	
877	4.38	-49.81983566284181	1272.010498046875	-897.5916748046877	-176.9290618896485	1216.825561523438	-930.188903808594	-226.1779174804688	1190.033935546875	-793.8430175781252	-240.1444244384766	1114.22021484375	-848.399108886719	-447.847625732422	879.8065185546877	-826.1495361328127	-154.1755065917969	985.223571777344	-826.3377075195315	-140.3655242919922	1021.436645507813	-1001.261047363281	-221.5153503417969	912.431091308594	-1156.179931640625	-247.0745544433594	872.5096435546877	-1142.115844726563	-260.2529602050782	875.1058349609377	-1200.588623046875	-302.1517333984376	844.457458496094	-1246.864990234375	-358.7957153320313	896.1692504882815	-1242.865478515625	-497.5942993164064	735.3021240234376	-1054.37255859375	-463.5538330078126	671.5402221679689	-1076.047973632813	-461.2073059082032	730.7815551757814	-995.776062011719	-176.5001068115235	1057.117919921875	-663.3479003906251	-321.1828308105469	1066.847900390625	-520.1525878906251	-335.1093139648438	1020.102966308594	-505.2427978515626	-373.7766418457032	1055.064819335938	-474.8707275390626	-426.496551513672	1025.202270507813	-433.7860412597657	-484.7005615234376	1044.474731445313	-495.4785156250001	-456.2490539550782	798.2108154296877	-607.2185058593751	-455.9141540527345	758.0223388671876	-542.7088623046876	-409.9969787597657	753.9491577148439	-647.3840332031251	-407.199432373047	658.3599243164064	-907.729919433594	-405.8490295410157	658.9168701171876	-706.5216674804689	-553.9199218750001	773.3666992187502	-807.3385009765627	-577.5245971679689	750.4121704101564	-834.8212890625002	-580.7333984375001	751.5199584960939	-780.3326416015627	-418.436737060547	510.6754760742189	-1060.084594726563	-342.2372741699219	515.0956420898439	-1099.45166015625	-320.1662292480469	556.1881103515626	-1097.680541992188	-305.5542297363282	469.0416870117189	-1110.615112304688	-202.3606414794922	432.8876342773439	-1152.331176757813	-172.2199096679688	389.9197692871095	-1040.394775390625	-258.3837890625001	232.5290679931641	-1126.299194335938	-345.1796569824219	247.3459625244141	-1149.540893554688	-313.1895751953126	216.112289428711	-1142.15478515625	-346.4061279296876	145.4260406494141	-1110.385620117188	-451.9251708984376	103.6812057495117	-1110.580322265625	-399.0773010253907	99.29006195068362	-1037.710205078125	-511.194061279297	47.43555450439454	-1061.701293945313	-291.8615722656251	54.57755279541017	-1102.047485351563	-305.4897460937501	52.88767242431642	-1147.512939453125	-363.4743652343751	31.68865394592286	-1183.629760742188	-360.1001892089844	542.0136108398439	-561.7750244140626	-295.1591796875001	539.6665649414064	-546.2042846679689	-274.2576293945313	566.3005371093751	-553.2687377929689	-248.8630371093751	469.049041748047	-536.3739624023439	-172.3188629150391	418.1637268066407	-517.8912963867189	-146.8766021728516	396.2012634277345	-642.4698486328126	-215.1429290771485	246.662338256836	-538.6376953125001	-324.7377319335938	234.9045867919922	-532.8995361328126	-289.1069030761719	204.3145446777344	-536.2086181640626	-300.5509033203126	155.5552368164063	-567.6849975585939	-413.8200073242189	100.8751678466797	-561.1884765625001	-373.3120727539063	95.98677825927736	-642.7277221679689	-473.8523254394532	49.62942123413087	-623.2753906250001	-258.3932800292969	52.37935256958009	-563.7494506835939	-272.5003662109376	56.65756988525392	-526.7206420898439	-327.2886962890626	35.50994491577149	-485.7922363281251	nan	nan	nan	
